<?xml version="1.0" standalone="no"?><!DOCTYPE svg PUBLIC "-//W3C//DTD SVG 1.1//EN" "http://www.w3.org/Graphics/SVG/1.1/DTD/svg11.dtd"><svg class="railroad-diagram" width="1093" height="82" version="1.1" xmlns="http://www.w3.org/2000/svg" xmlns:xlink="http://www.w3.org/1999/xlink"><defs xmlns="http://www.w3.org/1999/xhtml"><style type="text/css"><![CDATA[
svg.railroad-diagram { background-color: rgb(245, 243, 240); }
svg.railroad-diagram path { stroke-width: 3px; stroke: rgb(0, 0, 0); fill: rgba(0, 0, 0, 0); }
svg.railroad-diagram text { font-weight: bold; font-style: normal; font-variant: normal; font-stretch: normal; font-size: 14px; line-height: normal; font-family: monospace; text-anchor: middle; }
svg.railroad-diagram text.label { text-anchor: start; }
svg.railroad-diagram text.comment { font-style: italic; font-variant: normal; font-weight: normal; font-stretch: normal; font-size: 12px; line-height: normal; font-family: monospace; }
svg.railroad-diagram rect { stroke-width: 3px; stroke: rgb(0, 0, 0); fill: rgb(204, 255, 204); }
* { box-sizing: border-box; }
.input { position: absolute; top: 0px; left: 0px; width: 50%; height: 50%; }
.output-text { position: absolute; top: 0px; right: 0px; width: 50%; height: 50%; }
.output-image { position: absolute; top: 50%; left: 0px; right: 0px; height: 50%; }]]></style></defs><g transform="translate(.5 .5)"><path d="M 20 31 v 20 m 10 -20 v 20 m -10 -10 h 20.5"/><path d="M40 41h10"/><g><path d="M50 41h0"/><path d="M78 41h0"/><rect x="50" y="30" width="28" height="22" rx="10" ry="10"/><text x="64" y="45">[</text></g><path d="M78 41h10"/><path d="M88 41h10"/><g><path d="M98 41h0"/><path d="M150 41h0"/><rect x="98" y="30" width="52" height="22"/><text x="124" y="45">Name</text></g><path d="M150 41h10"/><g><path d="M160 41h0"/><path d="M328 41h0"/><path d="M160 41h20"/><g><path d="M180 41h0"/><path d="M308 41h0"/><path d="M180 41h10"/><g><path d="M190 41h0"/><path d="M218 41h0"/><rect x="190" y="30" width="28" height="22" rx="10" ry="10"/><text x="204" y="45">=</text></g><path d="M218 41h10"/><path d="M228 41h10"/><g><path d="M238 41h0"/><path d="M298 41h0"/><rect x="238" y="30" width="60" height="22"/><text x="268" y="45">Value</text></g><path d="M298 41h10"/></g><path d="M308 41h20"/><path d="M160 41a10 10 0 0 1 10 10v0a10 10 0 0 0 10 10"/><g><path d="M180 61h128"/></g><path d="M308 61a10 10 0 0 0 10 -10v0a10 10 0 0 1 10 -10"/></g><g><path d="M328 41h0"/><path d="M756 41h0"/><path d="M328 41a10 10 0 0 0 10 -10v0a10 10 0 0 1 10 -10"/><g><path d="M348 21h388"/></g><path d="M736 21a10 10 0 0 1 10 10v0a10 10 0 0 0 10 10"/><path d="M328 41h20"/><g><path d="M348 41h0"/><path d="M736 41h0"/><path d="M348 41h10"/><g><path d="M358 41h0"/><path d="M726 41h0"/><path d="M358 41h10"/><g><path d="M368 41h0"/><path d="M444 41h0"/><rect x="368" y="30" width="76" height="22" rx="10" ry="10"/><text x="406" y="45">[SPACE]</text></g><path d="M444 41h10"/><path d="M454 41h10"/><g><path d="M464 41h0"/><path d="M548 41h0"/><rect x="464" y="30" width="84" height="22"/><text x="506" y="45">FieldKey</text></g><path d="M548 41h10"/><path d="M558 41h10"/><g><path d="M568 41h0"/><path d="M596 41h0"/><rect x="568" y="30" width="28" height="22" rx="10" ry="10"/><text x="582" y="45">=</text></g><path d="M596 41h10"/><path d="M606 41h10"/><g><path d="M616 41h0"/><path d="M716 41h0"/><rect x="616" y="30" width="100" height="22"/><text x="666" y="45">FieldValue</text></g><path d="M716 41h10"/></g><path d="M726 41h10"/><path d="M358 41a10 10 0 0 0 -10 10v0a10 10 0 0 0 10 10"/><g><path d="M358 61h368"/></g><path d="M726 61a10 10 0 0 0 10 -10v0a10 10 0 0 0 -10 -10"/></g><path d="M736 41h20"/></g><path d="M756 41h10"/><g><path d="M766 41h0"/><path d="M794 41h0"/><rect x="766" y="30" width="28" height="22" rx="10" ry="10"/><text x="780" y="45">]</text></g><path d="M794 41h10"/><path d="M804 41h10"/><g><path d="M814 41h0"/><path d="M866 41h0"/><rect x="814" y="30" width="52" height="22"/><text x="840" y="45">Text</text></g><path d="M866 41h10"/><path d="M876 41h10"/><g><path d="M886 41h0"/><path d="M922 41h0"/><rect x="886" y="30" width="36" height="22" rx="10" ry="10"/><text x="904" y="45">[/</text></g><path d="M922 41h10"/><path d="M932 41h10"/><g><path d="M942 41h0"/><path d="M994 41h0"/><rect x="942" y="30" width="52" height="22" rx="10" ry="10"/><text x="968" y="45">Name</text></g><path d="M994 41h10"/><path d="M1004 41h10"/><g><path d="M1014 41h0"/><path d="M1042 41h0"/><rect x="1014" y="30" width="28" height="22" rx="10" ry="10"/><text x="1028" y="45">]</text></g><path d="M1042 41h10"/><path d="M 1052 41 h 20 m -10 -10 v 20 m 10 -20 v 20"/></g></svg>